<svg xmlns="http://www.w3.org/2000/svg" version="1.1" xmlns:xlink="http://www.w3.org/1999/xlink" width="512" height="512" x="0" y="0" viewBox="0 0 6.35 6.35" style="enable-background:new 0 0 512 512" xml:space="preserve" class=""><g><path fill-rule="evenodd" d="M3.181.264a1.86 1.86 0 0 0-1.857 1.857v1.526l-.5 1.005a.265.265 0 0 0 .237.384h4.238a.265.265 0 0 0 .237-.384l-.5-1.005V2.12A1.858 1.858 0 0 0 3.18.264zm0 .53c.739 0 1.324.588 1.324 1.327v1.588a.265.265 0 0 0 .027.12l.339.677H1.489l.338-.677a.265.265 0 0 0 .027-.12V2.121c0-.739.588-1.327 1.327-1.327zm-.557 4.772a.265.265 0 0 0 .027.53h1.06a.265.265 0 1 0 0-.53h-1.06a.265.265 0 0 0-.027 0z" paint-order="stroke fill markers" fill="#0082c0" opacity="1" data-original="#000000" class=""></path></g></svg>