<svg version="1.1" id="Layer_1" xmlns="http://www.w3.org/2000/svg" x="0" y="0" viewBox="0 0 48.7 45.2" style="enable-background:new 0 0 48.7 45.2" xml:space="preserve"><style>.st2{fill:#fff}</style><path style="fill:#999" d="M35.8 3.3v41.2l12.9-6.9V3.3z"/><path d="M48.7 3.1H17.1C7.7 3.1 0 10.8 0 20.2s7.7 17.1 17.1 17.1h31.6V3.1z" style="fill:#390"/><path class="st2" d="M33.4 21.5h-.1c-.1 0-.3 0-.4.1l-1.1 1.1c-.1.1-.2.3-.1.4v4.1a2.732 2.732 0 0 1-2.7 2.7H15.6a2.732 2.732 0 0 1-2.7-2.7V13.6c0-.7.3-1.4.8-1.9.4-.4 1.2-.7 1.9-.7H29c.2 0 .5 0 .7.1h.1c.1 0 .3 0 .4-.1l.8-.8v-.5c0-.2 0-.3-.2-.4-.6-.3-1.2-.4-1.9-.4H15.6c-2.5-.1-4.7 1.9-4.8 4.4v13.6c-.1 2.5 1.9 4.6 4.4 4.7h13.6c2.5.1 4.6-1.9 4.7-4.4V22c.1-.2.1-.4-.1-.5z"/><path class="st2" d="m37.5 12.2-1.7-1.8c-.5-.5-1.3-.5-1.9 0L23.4 21l-4.3-4.3c-.5-.5-1.3-.5-1.9 0l-1.7 1.7c-.5.5-.5 1.3 0 1.9l6.9 6.9c.5.5 1.3.5 1.9 0L37.5 14c.3-.2.4-.6.4-.9-.1-.3-.1-.7-.4-.9z"/></svg>