<svg xmlns="http://www.w3.org/2000/svg" version="1.1" xmlns:xlink="http://www.w3.org/1999/xlink" width="512" height="512" x="0" y="0" viewBox="0 0 32 32" style="enable-background:new 0 0 512 512" xml:space="preserve" class=""><g><g data-name="Layer 2"><g fill="#b4d89c"><path d="M9 16H7a1 1 0 0 1 0-2h2a1 1 0 0 1 0 2zM17 16h-2a1 1 0 0 1 0-2h2a1 1 0 0 1 0 2zM25 16h-2a1 1 0 0 1 0-2h2a1 1 0 0 1 0 2zM9 21H7a1 1 0 0 1 0-2h2a1 1 0 0 1 0 2zM17 21h-2a1 1 0 0 1 0-2h2a1 1 0 0 1 0 2zM25 21h-2a1 1 0 0 1 0-2h2a1 1 0 0 1 0 2zM9 26H7a1 1 0 0 1 0-2h2a1 1 0 0 1 0 2zM17 26h-2a1 1 0 0 1 0-2h2a1 1 0 0 1 0 2zM25 26h-2a1 1 0 0 1 0-2h2a1 1 0 0 1 0 2z" fill="#ffab00" opacity="1" data-original="#b4d89c"></path></g><path fill="#1b2318" d="M27 4h-2V3a1 1 0 0 0-2 0v1H9V3a1 1 0 0 0-2 0v1H5a3 3 0 0 0-3 3v20a3 3 0 0 0 3 3h22a3 3 0 0 0 3-3V7a3 3 0 0 0-3-3zm1 23a1 1 0 0 1-1 1H5a1 1 0 0 1-1-1V12h24zm0-17H4V7a1 1 0 0 1 1-1h2v1a1 1 0 0 0 2 0V6h14v1a1 1 0 0 0 2 0V6h2a1 1 0 0 1 1 1z" opacity="1" data-original="#1b2318" class=""></path></g></g></svg>