<svg xmlns="http://www.w3.org/2000/svg" version="1.1" xmlns:xlink="http://www.w3.org/1999/xlink" width="512" height="512" x="0" y="0" viewBox="0 0 64 64" style="enable-background:new 0 0 512 512" xml:space="preserve" class=""><g><g data-name="Layer 16"><path d="M58.5 37.35c1.41-1.48 3-3.16 3-5.35s-1.59-3.87-3-5.35a9 9 0 0 1-2-2.61 9.12 9.12 0 0 1 .06-3.44c.25-2 .53-4.24-.7-5.94s-3.5-2.14-5.48-2.52a8.73 8.73 0 0 1-3.24-1 8.86 8.86 0 0 1-1.91-2.74c-1-1.78-2.06-3.8-4.11-4.46s-4 .32-5.8 1.16A9.13 9.13 0 0 1 32 6.23a9.13 9.13 0 0 1-3.32-1.13c-1.79-.84-3.83-1.8-5.8-1.16s-3.14 2.68-4.11 4.46a8.86 8.86 0 0 1-1.92 2.75 8.73 8.73 0 0 1-3.24 1c-2 .38-4.23.8-5.48 2.52s-1 3.95-.7 5.94A9.12 9.12 0 0 1 7.49 24a9 9 0 0 1-2 2.61c-1.41 1.48-3 3.16-3 5.35s1.59 3.87 3 5.35a9 9 0 0 1 2 2.61 9.12 9.12 0 0 1-.06 3.44c-.25 2-.53 4.24.7 5.94s3.5 2.14 5.48 2.52a8.73 8.73 0 0 1 3.24 1 8.86 8.86 0 0 1 1.92 2.75c1 1.78 2.06 3.8 4.11 4.46s4-.32 5.8-1.16a9.13 9.13 0 0 1 3.32-1.1 9.13 9.13 0 0 1 3.32 1.13 11 11 0 0 0 4.44 1.37 4.24 4.24 0 0 0 1.36-.21c2.05-.66 3.14-2.68 4.11-4.46a8.86 8.86 0 0 1 1.92-2.75 8.73 8.73 0 0 1 3.24-1c2-.38 4.23-.8 5.48-2.52s1-4 .7-5.94a9.12 9.12 0 0 1-.06-3.39 9 9 0 0 1 1.99-2.65zm-2.18-2.06A10.58 10.58 0 0 0 53.66 39a11.12 11.12 0 0 0-.07 4.74c.19 1.5.39 3.06-.15 3.8s-2.1 1.05-3.6 1.33a10.79 10.79 0 0 0-4.46 1.51 10.81 10.81 0 0 0-2.78 3.74c-.74 1.36-1.5 2.75-2.41 3.05s-2.24-.39-3.59-1a11.23 11.23 0 0 0-4.6-1.4 11.23 11.23 0 0 0-4.6 1.41c-1.35.64-2.75 1.3-3.59 1s-1.67-1.69-2.41-3.05a10.81 10.81 0 0 0-2.78-3.74 10.79 10.79 0 0 0-4.46-1.51c-1.5-.28-3.05-.58-3.6-1.33s-.34-2.3-.15-3.8a11.12 11.12 0 0 0-.07-4.75 10.58 10.58 0 0 0-2.66-3.75C6.61 34.16 5.5 33 5.5 32s1.11-2.16 2.18-3.29A10.58 10.58 0 0 0 10.34 25a11.12 11.12 0 0 0 .07-4.74c-.19-1.5-.39-3.06.15-3.8s2.1-1.05 3.6-1.33a10.79 10.79 0 0 0 4.46-1.51 10.81 10.81 0 0 0 2.78-3.78c.74-1.36 1.5-2.75 2.41-3s2.24.39 3.59 1A11.23 11.23 0 0 0 32 9.23a11.23 11.23 0 0 0 4.6-1.41c1.35-.64 2.75-1.3 3.59-1s1.67 1.69 2.41 3.05a10.81 10.81 0 0 0 2.78 3.74 10.79 10.79 0 0 0 4.46 1.51c1.5.28 3 .58 3.6 1.33s.34 2.3.15 3.8a11.12 11.12 0 0 0 .07 4.75 10.58 10.58 0 0 0 2.66 3.75C57.39 29.84 58.5 31 58.5 32s-1.11 2.16-2.18 3.29z" fill="#dc3545" opacity="1" data-original="#000000"></path><path d="M32 13.83a5.55 5.55 0 0 0-5.54 6l1.29 16.27a4.26 4.26 0 0 0 8.5 0l1.29-16.27a5.55 5.55 0 0 0-5.54-6zm1.26 22a1.26 1.26 0 0 1-2.52 0l-1.29-16.24a2.56 2.56 0 1 1 5.1 0zM32 42.06a4.06 4.06 0 1 0 4 4.06 4.05 4.05 0 0 0-4-4.06zm0 5.11a1.06 1.06 0 1 1 1-1.05 1 1 0 0 1-1 1.05z" fill="#dc3545" opacity="1" data-original="#000000"></path></g></g></svg>