<svg version="1.1" id="Layer_1" xmlns="http://www.w3.org/2000/svg" x="0" y="0" viewBox="0 0 48.7 41.4" style="enable-background:new 0 0 48.7 41.4" xml:space="preserve"><style>.st4{fill:#fff}.st5{font-family:&apos;MyriadPro-Regular&apos;}.st6{font-size:15.8845px}</style><path style="fill:#999" d="M35.8.2v41.2l12.9-6.9V.2z"/><path d="M48.7 0H17.1C7.7 0 0 7.7 0 17.1s7.7 17.1 17.1 17.1h31.6V0z" style="fill:#5c81ea"/><path style="fill:none" d="M12.8 3.8H30v22.4H12.8z"/><path d="M31.7 9.3c-.3 0-.5.2-.5.4v16.5h-16V6.7h9.4c.3 0 .5-.2.5-.5s-.2-.5-.5-.5h-9.9c-.3 0-.5.2-.5.4V26.8c0 .3.2.5.4.5h17.1c.3 0 .5-.2.5-.4v-17c0-.3-.2-.6-.5-.6z" style="fill:#fff;stroke:#fcfafa;stroke-width:.9934;stroke-miterlimit:10"/><path class="st4" d="m24.8 4.9.3 4.7 7.7-.4-8-4.3"/><text transform="translate(17.656 22.553)" class="st4 st5 st6">+</text><text transform="translate(17.656 22.553)" class="st5 st6" style="fill:none;stroke:#fffdfd;stroke-width:.9934;stroke-miterlimit:10">+</text></svg>