<svg xmlns="http://www.w3.org/2000/svg" version="1.1" xmlns:xlink="http://www.w3.org/1999/xlink" width="512" height="512" x="0" y="0" viewBox="0 0 48 48" style="enable-background:new 0 0 512 512" xml:space="preserve" class=""><g><path d="M45 4h-9a3.003 3.003 0 0 0-3-3h-2a3.003 3.003 0 0 0-3 3H3a2.002 2.002 0 0 0-2 2v2a2.002 2.002 0 0 0 2 2h25a3.003 3.003 0 0 0 3 3h2a3.003 3.003 0 0 0 3-3h9a2.002 2.002 0 0 0 2-2V6a2.002 2.002 0 0 0-2-2zM3 8V6h25v2zm31 2a1.001 1.001 0 0 1-1 1h-2a1.001 1.001 0 0 1-1-1V4a1.001 1.001 0 0 1 1-1h2a1.001 1.001 0 0 1 1 1zm11-2h-9V6h9zm0 13H20a3.003 3.003 0 0 0-3-3h-2a3.003 3.003 0 0 0-3 3H3a2.002 2.002 0 0 0-2 2v2a2.002 2.002 0 0 0 2 2h9a3.003 3.003 0 0 0 3 3h2a3.003 3.003 0 0 0 3-3h25a2.002 2.002 0 0 0 2-2v-2a2.002 2.002 0 0 0-2-2zM3 25v-2h9v2zm15 2a1.001 1.001 0 0 1-1 1h-2a1.001 1.001 0 0 1-1-1v-6a1.001 1.001 0 0 1 1-1h2a1.001 1.001 0 0 1 1 1zm27-2H20v-2h25zm0 13H31a3.003 3.003 0 0 0-3-3h-2a3.003 3.003 0 0 0-3 3H3a2.002 2.002 0 0 0-2 2v2a2.002 2.002 0 0 0 2 2h20a3.003 3.003 0 0 0 3 3h2a3.003 3.003 0 0 0 3-3h14a2.002 2.002 0 0 0 2-2v-2a2.002 2.002 0 0 0-2-2zM3 42v-2h20v2zm26 2a1.001 1.001 0 0 1-1 1h-2a1.001 1.001 0 0 1-1-1v-6a1.001 1.001 0 0 1 1-1h2a1.001 1.001 0 0 1 1 1zm16-2H31v-2h14z" fill="#ffbc5a" opacity="1" data-original="#000000" class=""></path></g></svg>