<svg id="Capa_1" enable-background="new 0 0 512 512" height="512" viewBox="0 0 512 512" width="512" xmlns="http://www.w3.org/2000/svg"><g><path d="m271 271h-15l-7.5-15 7.5-15h15z" fill="#292827"/><path d="m241 241h15v30h-15z" fill="#464443"/><path d="m177.266 241h30v30h-30z" fill="#464443"/><path d="m304.735 241h30v30h-30z" fill="#292827"/><path d="m256 63.735c-106.185 0-192.266 86.08-192.266 192.266 0 48.324 17.833 92.48 47.27 126.258l45.228-45.229c-17.98-22.111-28.764-50.309-28.764-81.03 0-70.986 57.545-128.531 128.531-128.531h15.934v-63.734z" fill="#30bbec"/><path d="m400.996 129.742-45.228 45.229c17.98 22.111 28.764 50.309 28.764 81.03 0 70.986-57.545 128.531-128.531 128.531h-15.934v63.734h15.933c106.185 0 192.266-86.08 192.266-192.266 0-48.324-17.833-92.48-47.27-126.258z" fill="#1f8dcd"/><g fill="#16a5d9"><path d="m256 0v191.204l95.602-95.602z"/><path d="m256 512v-191.204l-95.602 95.602z"/></g></g></svg>