<svg xmlns="http://www.w3.org/2000/svg" version="1.1" xmlns:xlink="http://www.w3.org/1999/xlink" xmlns:svgjs="http://svgjs.com/svgjs" width="512" height="512" x="0" y="0" viewBox="0 0 32 32" style="enable-background:new 0 0 512 512" xml:space="preserve" class=""><g transform="matrix(1.0000000000000004,0,0,1.0000000000000004,-7.105427357601002e-15,-7.105427357601002e-15)"><circle cx="16" cy="15.872" r="6.961" fill="#67ddff" data-original="#67ddff"></circle><g fill="#221aff"><path d="M16 31C7.728 31 1 24.272 1 16S7.728 1 16 1s15 6.729 15 15-6.729 15-15 15zm0-28C8.832 3 3 8.832 3 16s5.832 13 13 13 13-5.832 13-13S23.168 3 16 3z" fill="#221aff" data-original="#221aff" class=""></path><path d="M9.783 18.257a1.04 1.04 0 0 1-1.566 0l-2.811-3.212a1 1 0 1 1 1.505-1.317L9 16.115l2.089-2.387a1 1 0 1 1 1.505 1.317zM22.116 13.742a1.04 1.04 0 0 1 1.566 0l2.811 3.212a1 1 0 1 1-1.505 1.317l-2.089-2.387-2.089 2.387a1 1 0 1 1-1.505-1.317z" fill="#221aff" data-original="#221aff" class=""></path><path d="M8.103 17.29A8.201 8.201 0 0 1 7.999 16c0-4.411 3.589-8 8-8 1.731 0 3.381.547 4.748 1.559.485.359.529 1.074.106 1.505a.994.994 0 0 1-1.3.1A5.964 5.964 0 0 0 15.999 10a6.006 6.006 0 0 0-5.922 6.97l-1.975.32zM16 24a8.01 8.01 0 0 1-5.166-1.892c-.461-.389-.456-1.106-.005-1.507a.997.997 0 0 1 1.307-.012A6.01 6.01 0 0 0 16 22a6.006 6.006 0 0 0 5.867-7.265l1.955-.418A8.05 8.05 0 0 1 24 16c0 4.411-3.589 8-8 8z" fill="#221aff" data-original="#221aff" class=""></path></g></g></svg>