<svg version="1.1" id="Layer_1" xmlns="http://www.w3.org/2000/svg" x="0" y="0" viewBox="0 0 48.7 41.4" style="enable-background:new 0 0 48.7 41.4" xml:space="preserve"><style>.st2{fill:#fff}</style><path style="fill:#999" d="M35.8.2v41.2l12.9-6.9V.2z"/><path d="M48.7 0H17.1C7.7 0 0 7.7 0 17.1s7.7 17.1 17.1 17.1h31.6V0z" style="fill:#06c"/><path class="st2" d="M17.4 3.8c3.6.1 5.7 2.2 5.8 5.5 0 .3 0 .6.2.8.9.9.8 2.6-.3 3.3-.3.2-.5.5-.7.8 0 .1 0 .1-.1.2-.7 2-2.7 3.7-4.4 3.7-1.7 0-3.7-1.7-4.5-3.6-.2-.5-.6-.9-1-1.2-.9-.7-1-2.4-.2-3.2.2-.2.2-.5.2-.8.1-.7.1-1.5.2-2.2.1-.5.3-1.1.6-1.3 1.6-.8 3-1.4 4.2-2zM20.8 22.5c.8.6 1.5 1.1 2 1.5-.2 1.2-.4 2.3-.7 3.7-.7.1-1.6.3-2.6.3-3.7.2-7.3-.2-10.8-1.7-.8-.4-1.7-.7-1.7-1.9 0-1.4.2-2.8 1.7-3.3 1.6-.6 3.2-1.1 4.9-1.7.8 1.8 1.5 3.7 2.4 5.8.4-1.1.8-1.9 1-2.7.1-.2-.2-.6-.4-.8-.4-.7-1-1.4-.2-2.1.5-.5 2.6-.5 2.8.1.2.5.2 1.3-.1 1.6-.8.8-.6 1.6-.2 2.4.2.4.3.8.6 1.5.6-1.1.9-1.9 1.3-2.7zM21.3 20.4c1.6-1.2 2.9-2.2 4.4-3.3.1.8.2 1.3.3 2 .7 0 1.5.1 2.2 0 1-.1 1.3.3 1.3 1.3 0 .9-.2 1.4-1.2 1.3-.7-.1-1.5 0-2.3 0-.1.6-.2 1.2-.3 2-1.5-1.1-2.8-2.1-4.4-3.3zM28 30.1c-.1-.8-.2-1.3-.3-2h-2.6c-1 0-.9-.7-.9-1.3s-.1-1.3.9-1.3h2.6c.1-.7.2-1.2.3-2 1.6 1.2 2.9 2.2 4.4 3.3-1.5 1.1-2.8 2.1-4.4 3.3z"/></svg>