<svg xmlns="http://www.w3.org/2000/svg" viewBox="0 0 48.7 41.4" style="enable-background:new 0 0 48.7 41.4" xml:space="preserve"><path style="fill:#999" d="M35.8.2v41.2l12.9-6.9V.2z"/><path d="M48.7 0H17.1C7.7 0 0 7.7 0 17.1s7.7 17.1 17.1 17.1h31.6V0z" style="fill:#06f"/><path style="fill:none" d="M12.8 3.8H30v22.4H12.8z"/><path d="M38.7 16.6c-4.6-5.5-9.5-8.2-14.6-8.1-8.2.2-13.9 7.8-14.2 8.1V17.4c.2.3 5.9 7.9 14.2 8.1h.4c5 0 9.7-2.7 14.2-8.1.1-.1.2-.3.2-.5s-.1-.1-.2-.3zm-14.5 7.6c-6.4-.2-11.3-5.5-12.6-7.1 1.3-1.6 6.2-6.9 12.6-7.1 4.5-.1 8.8 2.3 12.9 7.1-4.1 4.8-8.4 7.2-12.9 7.1z" style="fill:#fff;stroke:#fff;stroke-miterlimit:10"/><path d="M24.7 12.1c-2.8 0-5 2.2-5 5s2.2 5 5 5 5-2.2 5-5-2.2-5-5-5zm0 8.5c-1.9 0-3.5-1.6-3.5-3.5s1.6-3.5 3.5-3.5 3.5 1.6 3.5 3.5-1.6 3.5-3.5 3.5z" style="fill:#fff"/></svg>