<svg xmlns="http://www.w3.org/2000/svg" viewBox="0 0 172.61 147.96"><defs><style>.cls-1{fill:#bfbfbf;}.cls-2{fill:#d8d8d6;}.cls-3{fill:#afafac;}.cls-4{fill:#b2b2b1;}.cls-5,.cls-6,.cls-7,.cls-8{fill:none;}.cls-5{stroke:#3498db;}.cls-5,.cls-6{stroke-linecap:round;stroke-linejoin:round;stroke-width:12.33px;}.cls-6{stroke:#fff;}.cls-7{stroke:#ffcf47;stroke-width:15px;}.cls-8{stroke:#fc6d4b;stroke-width:14px;}</style></defs><title>Asset 4</title><g id="Layer_2" data-name="Layer 2"><g id="Layer_1-2" data-name="Layer 1"><path class="cls-1" d="M8.49,18.47l60.19,70V144l37-24.66V88.48l60.18-70a6.16,6.16,0,0,0-4.77-10.15H13.27A6.17,6.17,0,0,0,8.49,18.47Z"/><path class="cls-2" d="M93.34,94.65v32.89l12.33-8.22V88.48H99.5A6.16,6.16,0,0,0,93.34,94.65Z"/><path class="cls-3" d="M161.08,8.32H13.27A6.17,6.17,0,0,0,8.49,18.47l1.88,2.18H148.75c3.6,0,6,5.62,6.19,10.51l10.9-12.69a6.14,6.14,0,0,0-4.76-10.15Z"/><path class="cls-4" d="M81,135.76V88.48l-60.18-70A6.16,6.16,0,0,1,25.59,8.33H13.27A6.17,6.17,0,0,0,8.49,18.48l60.19,70V144Z"/><path class="cls-5" d="M7.61,16.3l60.19,70v55.5l37-24.67V86.32l60.18-70a6.16,6.16,0,0,0-4.77-10.15H12.34A6.17,6.17,0,0,0,7.61,16.3Z"/><polyline class="cls-6" points="124.17 26.82 134.28 26.82 118 45.76"/><line class="cls-7" x1="32.18" y1="26.15" x2="77.18" y2="73.15"/><line class="cls-8" x1="78.37" y1="72.15" x2="78.37" y2="124.15"/></g></g></svg>