<svg xmlns="http://www.w3.org/2000/svg" xmlns:xlink="http://www.w3.org/1999/xlink" viewBox="0 0 65.84 64.39"><defs><style>.cls-1{fill:url(#linear-gradient);}.cls-2{fill:#f1f5f7;}.cls-3{fill:#2f7abe;}.cls-4{fill:#11c111;}</style><linearGradient id="linear-gradient" x1="41.79" y1="-70.04" x2="40.17" y2="-195.37" gradientTransform="matrix(1, 0, 0, -1, 0, -78.78)" gradientUnits="userSpaceOnUse"><stop offset="0" stop-color="#b5b5b5"/><stop offset="1" stop-color="#2affd2"/></linearGradient></defs><title>Asset 9</title><g id="Layer_2" data-name="Layer 2"><g id="Layer_1-2" data-name="Layer 1"><path class="cls-1" d="M52.38,63.19H30.16A10.54,10.54,0,0,1,19.65,52.68V10.61A10.54,10.54,0,0,1,30.16.1H52.38A15.46,15.46,0,0,0,62.89,10.61V52.67A10.54,10.54,0,0,1,52.38,63.19Z"/><rect class="cls-2" x="2.38" y="37.15" width="32.93" height="10.72"/><g id="layer1-2"><g id="g7845"><path id="path7036" class="cls-3" d="M35.11,0a1.46,1.46,0,0,0-1.46,1.46h0V2.93a1.46,1.46,0,0,0,1.46,1.46H49.75v9.49a2.22,2.22,0,0,0,2.19,2.19h9.49V57.78A2.14,2.14,0,0,1,59.34,60H25.6a2.14,2.14,0,0,1-2.19-2.09V55.61A1.46,1.46,0,0,0,22,54.15H20.48A1.46,1.46,0,0,0,19,55.61h0v2.2a6.61,6.61,0,0,0,6.58,6.58H59.26a6.61,6.61,0,0,0,6.58-6.58V13.19a2.2,2.2,0,0,0-.64-1.55l-11-11A2.2,2.2,0,0,0,52.65,0ZM19,30.73a1.46,1.46,0,0,0,1.46,1.46h1.46a1.46,1.46,0,0,0,1.47-1.45h0V16.1a1.47,1.47,0,0,0-1.47-1.47H20.48A1.46,1.46,0,0,0,19,16.09h0Z"/><path id="path7038" class="cls-4" d="M25.6,0A6.62,6.62,0,0,0,19,6.59v3.65a1.46,1.46,0,0,0,1.45,1.47h1.47a1.47,1.47,0,0,0,1.47-1.47V6.61a2.14,2.14,0,0,1,2.08-2.2h3.77A1.46,1.46,0,0,0,30.72,3h0V1.48A1.46,1.46,0,0,0,29.26,0h0ZM2.92,35.12A2.91,2.91,0,0,0,0,38V48.29a2.91,2.91,0,0,0,2.9,2.92H39.5a2.92,2.92,0,0,0,2.93-2.91h0V38a2.92,2.92,0,0,0-2.92-2.92H2.92Zm9.84,3.78a4.64,4.64,0,0,1,2,.45.67.67,0,0,1,.64-.44c.44,0,.62.19.62.77v1.78c0,.58-.14.79-.71.79-.42,0-.57-.21-.7-.64A1.46,1.46,0,0,0,13,40.4c-1.38,0-2.16,1-2.16,2.76s.78,2.77,2.18,2.77,2-1,2.67-1a.7.7,0,0,1,.63.76v0c0,.73-1.56,1.68-3.44,1.68a3.93,3.93,0,0,1-4-3.86,3,3,0,0,1,0-.42,4,4,0,0,1,3.73-4.25h.19Zm8.13,0a4.39,4.39,0,0,1,1.79.38c.15-.34.32-.38.7-.38s.56.14.57.73V41c0,.52-.17.73-.7.73s-.61-.31-.78-.64A1.51,1.51,0,0,0,21,40.25c-.85,0-1.37.44-1.37,1s.79.78,2.2,1.08c1.69.34,2.48,1.1,2.48,2.48,0,1.68-1.17,2.62-3.29,2.62A5.57,5.57,0,0,1,19,47.09a.63.63,0,0,1-.64.34c-.56,0-.77-.17-.78-.74V45c0-.59.19-.81.76-.81s.61.39.86.88a1.91,1.91,0,0,0,1.9,1c.82,0,1.32-.35,1.32-1,0-.88-.78-.88-2.31-1.28s-2.35-.92-2.35-2.31c0-1.55,1.28-2.64,3.14-2.64Zm5.15.22h2c.55,0,.84.2.84.76s-.29.75-.84.75h-.18l1.63,4.84,1.72-4.86H31c-.56,0-.84-.19-.84-.75s.29-.76.85-.76h1.72c.57,0,.85.19.85.76a.67.67,0,0,1-.58.75h-.27l-2.08,5.91c-.18.54-.25.67-.84.67H29c-.61,0-.65-.16-.83-.67L26,40.61h-.11c-.48,0-.71-.26-.71-.75s.26-.74.82-.74Z"/></g></g></g></g></svg>