<svg xmlns="http://www.w3.org/2000/svg" xmlns:xlink="http://www.w3.org/1999/xlink" viewBox="0 0 46.25 47.43"><defs><style>.cls-1,.cls-2,.cls-3{opacity:0.4;}.cls-1,.cls-2,.cls-23,.cls-25,.cls-26,.cls-27,.cls-3,.cls-30,.cls-32,.cls-36,.cls-37,.cls-4,.cls-5,.cls-6{isolation:isolate;}.cls-1{fill:url(#linear-gradient);}.cls-2{fill:url(#radial-gradient);}.cls-3{fill:url(#radial-gradient-2);}.cls-28,.cls-4{opacity:0.39;}.cls-4{fill:url(#linear-gradient-2);}.cls-5{fill:#babdb6;stroke:#555753;opacity:0.5;}.cls-10,.cls-11,.cls-12,.cls-13,.cls-14,.cls-15,.cls-16,.cls-17,.cls-18,.cls-19,.cls-20,.cls-21,.cls-22,.cls-24,.cls-25,.cls-26,.cls-27,.cls-30,.cls-31,.cls-33,.cls-34,.cls-5,.cls-8,.cls-9{fill-rule:evenodd;}.cls-6{opacity:0.24;fill:url(#linear-gradient-3);}.cls-7{opacity:0.13;}.cls-8{stroke:#000;stroke-width:1.3px;}.cls-9{fill:url(#radial-gradient-3);}.cls-10{fill:url(#radial-gradient-4);}.cls-11{fill:url(#radial-gradient-5);}.cls-12{fill:url(#radial-gradient-6);}.cls-13{fill:url(#radial-gradient-7);}.cls-14{fill:url(#radial-gradient-8);}.cls-15{fill:url(#radial-gradient-9);}.cls-16{fill:url(#radial-gradient-10);}.cls-17{fill:url(#radial-gradient-11);}.cls-18{fill:url(#radial-gradient-12);}.cls-19{fill:url(#radial-gradient-13);}.cls-20{fill:url(#radial-gradient-14);}.cls-21{fill:url(#radial-gradient-15);}.cls-22{fill:url(#radial-gradient-16);}.cls-23,.cls-32{fill:none;stroke:#fff;opacity:0.63;}.cls-24{stroke:#204a87;fill:url(#linear-gradient-4);}.cls-25{fill:#555753;opacity:0.15;}.cls-26,.cls-27{fill:#eeeeec;}.cls-26{opacity:0.43;}.cls-27{opacity:0.37;}.cls-29{fill:url(#linear-gradient-5);}.cls-30{opacity:0.83;fill:url(#linear-gradient-6);}.cls-31{stroke:#888a85;fill:url(#linear-gradient-7);}.cls-32,.cls-33{stroke-linecap:square;}.cls-33{fill:#c00;stroke:#a40000;stroke-width:1.24px;}.cls-34{fill:#ef2929;}.cls-35{fill:url(#linear-gradient-8);}.cls-36{opacity:0.27;fill:url(#linear-gradient-9);}.cls-37{opacity:0.14;}</style><linearGradient id="linear-gradient" x1="4244.02" y1="3591.05" x2="4244.02" y2="3833.91" gradientTransform="translate(-231.37 -103.99) scale(0.06 0.04)" gradientUnits="userSpaceOnUse"><stop offset="0" stop-opacity="0"/><stop offset="0.5"/><stop offset="1" stop-opacity="0"/></linearGradient><radialGradient id="radial-gradient" cx="3783.96" cy="3711.05" r="117.14" gradientTransform="translate(-231.36 -103.99) scale(0.06 0.04)" gradientUnits="userSpaceOnUse"><stop offset="0"/><stop offset="1" stop-opacity="0"/></radialGradient><radialGradient id="radial-gradient-2" cx="-3058.53" cy="3711.05" r="117.14" gradientTransform="matrix(-0.06, 0, 0, 0.04, -206.1, -103.99)" xlink:href="#radial-gradient"/><linearGradient id="linear-gradient-2" x1="23" y1="-110.78" x2="23" y2="-99.53" gradientTransform="translate(0 130.78)" xlink:href="#radial-gradient"/><linearGradient id="linear-gradient-3" x1="-166.11" y1="152.06" x2="-165.96" y2="194.15" gradientTransform="translate(608.65 -44.4) scale(3.52 0.35)" xlink:href="#radial-gradient"/><radialGradient id="radial-gradient-3" cx="-155.4" cy="-187.46" r="2.55" gradientTransform="matrix(3.15, 0.07, -0.06, 2.74, 511, 559.6)" gradientUnits="userSpaceOnUse"><stop offset="0" stop-color="#fff"/><stop offset="1" stop-color="#d5d5d5"/></radialGradient><radialGradient id="radial-gradient-4" cx="-155.4" cy="-187.46" r="2.55" gradientTransform="matrix(3.15, 0.07, -0.06, 2.74, 491.75, 559.75)" xlink:href="#radial-gradient-3"/><radialGradient id="radial-gradient-5" cx="-155.4" cy="-187.46" r="2.55" gradientTransform="matrix(3.15, 0.07, -0.06, 2.74, 493.5, 559.7)" xlink:href="#radial-gradient-3"/><radialGradient id="radial-gradient-6" cx="-155.4" cy="-187.46" r="2.55" gradientTransform="matrix(3.15, 0.07, -0.06, 2.74, 503, 559.6)" xlink:href="#radial-gradient-3"/><radialGradient id="radial-gradient-7" cx="-155.4" cy="-187.46" r="2.55" gradientTransform="matrix(3.15, 0.07, -0.06, 2.74, 517, 559.6)" xlink:href="#radial-gradient-3"/><radialGradient id="radial-gradient-8" cx="-155.4" cy="-187.46" r="2.55" gradientTransform="matrix(3.15, 0.07, -0.06, 2.74, 513, 559.6)" xlink:href="#radial-gradient-3"/><radialGradient id="radial-gradient-9" cx="-155.4" cy="-187.46" r="2.55" gradientTransform="matrix(3.15, 0.07, -0.06, 2.74, 515, 559.6)" xlink:href="#radial-gradient-3"/><radialGradient id="radial-gradient-10" cx="-155.4" cy="-187.46" r="2.55" gradientTransform="matrix(3.15, 0.07, -0.06, 2.74, 509, 559.6)" xlink:href="#radial-gradient-3"/><radialGradient id="radial-gradient-11" cx="-155.4" cy="-187.46" r="2.55" gradientTransform="matrix(3.15, 0.07, -0.06, 2.74, 507, 559.6)" xlink:href="#radial-gradient-3"/><radialGradient id="radial-gradient-12" cx="-155.4" cy="-187.46" r="2.55" gradientTransform="matrix(3.15, 0.07, -0.06, 2.74, 505, 559.6)" xlink:href="#radial-gradient-3"/><radialGradient id="radial-gradient-13" cx="-155.4" cy="-187.46" r="2.55" gradientTransform="matrix(3.15, 0.07, -0.06, 2.74, 495.15, 559.7)" xlink:href="#radial-gradient-3"/><radialGradient id="radial-gradient-14" cx="-155.4" cy="-187.46" r="2.55" gradientTransform="matrix(3.15, 0.07, -0.06, 2.74, 500.55, 560.51)" xlink:href="#radial-gradient-3"/><radialGradient id="radial-gradient-15" cx="-155.4" cy="-187.46" r="2.55" gradientTransform="matrix(3.15, 0.07, -0.06, 2.74, 497, 559.6)" xlink:href="#radial-gradient-3"/><radialGradient id="radial-gradient-16" cx="-155.4" cy="-187.46" r="2.55" gradientTransform="matrix(3.15, 0.07, -0.06, 2.74, 498.65, 560.47)" xlink:href="#radial-gradient-3"/><linearGradient id="linear-gradient-4" x1="23.03" y1="-115.94" x2="23.03" y2="-110.78" gradientTransform="translate(0 130.78)" gradientUnits="userSpaceOnUse"><stop offset="0" stop-color="#598bcb"/><stop offset="0.76" stop-color="#2f5c96"/><stop offset="1" stop-color="#203e65"/></linearGradient><linearGradient id="linear-gradient-5" x1="22.75" y1="-111.65" x2="23.41" y2="-119.96" gradientTransform="translate(0 130.78)" gradientUnits="userSpaceOnUse"><stop offset="0" stop-color="#fff"/><stop offset="1" stop-color="#fff" stop-opacity="0"/></linearGradient><linearGradient id="linear-gradient-6" x1="22.32" y1="-83.29" x2="22.45" y2="-78.54" gradientTransform="translate(0 75.71) scale(1 0.8)" xlink:href="#radial-gradient"/><linearGradient id="linear-gradient-7" x1="33.73" y1="-161.14" x2="35.08" y2="-142.05" gradientTransform="translate(-11.31 185.57) scale(0.98 1.2)" gradientUnits="userSpaceOnUse"><stop offset="0" stop-color="#fff"/><stop offset="1" stop-color="#d3d3d3"/></linearGradient><linearGradient id="linear-gradient-8" x1="105.35" y1="-83.29" x2="105.35" y2="-79.98" gradientTransform="translate(-45.77 76.39) scale(0.81 0.8)" gradientUnits="userSpaceOnUse"><stop offset="0" stop-color="#a40000"/><stop offset="1" stop-color="#ffc4c4"/></linearGradient><linearGradient id="linear-gradient-9" x1="22.5" y1="-119.78" x2="22.5" y2="-125.09" gradientTransform="translate(0 130.78)" xlink:href="#radial-gradient"/></defs><title>Asset 1</title><g id="Layer_2" data-name="Layer 2"><g id="Layer_1-2" data-name="Layer 1"><g id="layer1"><g id="g6707"><rect id="rect6709" class="cls-1" x="8.12" y="38.02" width="30.31" height="9.41"/><path id="path6711" class="cls-2" d="M38.44,38v9.4c3.23,0,7.81-2.1,7.81-4.7S42.63,38,38.44,38Z"/><path id="path6713" class="cls-3" d="M8.12,38v9.4c-3.23,0-7.81-2.1-7.81-4.7S3.91,38,8.12,38Z"/></g><path id="path3173" class="cls-4" d="M3.75,20h38.5l-.87,11.25H4.63Z"/><path id="path1751" class="cls-5" d="M3,15.5,4.73,41c.16,2.55,1.56,3.49,3.12,3.49H37.76c2.63,0,3.27-1.63,3.44-3.4,0,0,1.79-25.55,1.8-25.59Z"/><path id="path1893" class="cls-6" d="M42.44,19.71H6.19c27.31.64,32.68,3.65,36,3.49Z"/><g id="g3199" class="cls-7"><path id="path3201" class="cls-8" d="M28.25,18.7a14.92,14.92,0,0,1,.36,6.74c-.77,3-.25,7.86-.25,7.86l1.61.42a25.08,25.08,0,0,1,0-8.11,14.07,14.07,0,0,0-.35-6.91Z"/><path id="path3203" class="cls-8" d="M9,18.85a14.88,14.88,0,0,1,.36,6.73c-.77,3-.25,7.86-.25,7.86l1.44-.54a21.14,21.14,0,0,1,.22-7.14,14.07,14.07,0,0,0-.35-6.91Z"/><path id="path3205" class="cls-8" d="M10.76,18.8a14.92,14.92,0,0,1,.35,6.74,12,12,0,0,1-3.4,5.31l1.2,2a21.92,21.92,0,0,0,3.61-7.11,14,14,0,0,0-.35-6.91Z"/><path id="path3207" class="cls-8" d="M20.25,18.7a14.92,14.92,0,0,1,.36,6.74c-.77,3-.25,7.86-.25,7.86l1.66.56a25.38,25.38,0,0,1,0-8.25,14.07,14.07,0,0,0-.35-6.91Z"/><path id="path3209" class="cls-8" d="M34.25,18.7a14.92,14.92,0,0,1,.36,6.74c-.77,3,1,7.15,1,7.15l1.53-1.21A6.83,6.83,0,0,1,36,25.61a14.07,14.07,0,0,0-.35-6.91Z"/><path id="path3211" class="cls-8" d="M30.25,18.7a14.92,14.92,0,0,1,.36,6.74c-.77,3-.25,7.86-.25,7.86l1.52-.06A23,23,0,0,1,32,25.61a14.07,14.07,0,0,0-.35-6.91Z"/><path id="path3213" class="cls-8" d="M32.25,18.7a14.92,14.92,0,0,1,.36,6.74,52.33,52.33,0,0,0-1.05,7.68l1.79.43A37.1,37.1,0,0,1,34,25.61a14.07,14.07,0,0,0-.35-6.91Z"/><path id="path3215" class="cls-8" d="M26.25,18.7a14.92,14.92,0,0,1,.36,6.74c-.77,3,.54,7.64.54,7.64l1.66-.68A11.39,11.39,0,0,1,28,25.61a14.07,14.07,0,0,0-.35-6.91Z"/><path id="path3217" class="cls-8" d="M24.25,18.7a14.92,14.92,0,0,1,.36,6.74c-.77,3-1.36,7.73-1.36,7.73l1.53.2A75,75,0,0,1,26,25.61a14.07,14.07,0,0,0-.35-6.91Z"/><path id="path3219" class="cls-8" d="M22.25,18.7a14.92,14.92,0,0,1,.36,6.74c-.77,3-.25,7.86-.25,7.86l1.44-.55A21.14,21.14,0,0,1,24,25.61a14.07,14.07,0,0,0-.35-6.91Z"/><path id="path3221" class="cls-8" d="M12.44,18.8a14.92,14.92,0,0,1,.36,6.74c-.77,3-.25,7.86-.25,7.86l1.58.39a25.18,25.18,0,0,1,.08-8.08,14.07,14.07,0,0,0-.35-6.91Z"/><path id="path3223" class="cls-8" d="M18.51,19.61a34.46,34.46,0,0,1-.36,6.73c-.54,3.06,2.25,7.25,2.25,7.25L21.81,33a8.07,8.07,0,0,1-2.16-6.78,28.81,28.81,0,0,0,.27-6.56Z"/><path id="path3225" class="cls-8" d="M14.25,18.7a14.92,14.92,0,0,1,.36,6.74c-.77,3-.25,7.86-.25,7.86l1.44-.55A21.14,21.14,0,0,1,16,25.61a14.07,14.07,0,0,0-.35-6.91Z"/><path id="path3227" class="cls-8" d="M15.91,19.57a14.87,14.87,0,0,1,.35,6.73,9.9,9.9,0,0,1-2.44,4.59L15.05,32a13.73,13.73,0,0,0,2.62-5.55,14.07,14.07,0,0,0-.35-6.91Z"/></g><g id="g3183"><path id="path3121" class="cls-9" d="M28.16,18.61a14.92,14.92,0,0,1,.36,6.74,28.75,28.75,0,0,0-.25,7.86l1.61.42a25.08,25.08,0,0,1,0-8.11,14,14,0,0,0-.35-6.9Z"/><path id="path3002" class="cls-10" d="M8.91,18.76a14.88,14.88,0,0,1,.36,6.73c-.77,3-.25,7.87-.25,7.87l1.44-.55a21.14,21.14,0,0,1,.22-7.14,14.07,14.07,0,0,0-.35-6.91Z"/><path id="path2976" class="cls-11" d="M10.67,18.71A14.92,14.92,0,0,1,11,25.45a12,12,0,0,1-3.4,5.31l1.21,2a22.12,22.12,0,0,0,3.61-7.11,13.92,13.92,0,0,0-.36-6.9Z"/><path id="path3105" class="cls-12" d="M20.16,18.61a14.92,14.92,0,0,1,.36,6.74,28.75,28.75,0,0,0-.25,7.86l1.66.56a25.38,25.38,0,0,1,0-8.25,14,14,0,0,0-.35-6.9Z"/><path id="path3133" class="cls-13" d="M34.16,18.61a14.92,14.92,0,0,1,.36,6.74c-.76,3,1,7.15,1,7.15l1.53-1.21a6.83,6.83,0,0,1-1.15-5.77,14,14,0,0,0-.35-6.9Z"/><path id="path3125" class="cls-14" d="M30.16,18.61a14.92,14.92,0,0,1,.36,6.74,28.75,28.75,0,0,0-.25,7.86l1.53-.06a23,23,0,0,1,.13-7.63,14,14,0,0,0-.35-6.9Z"/><path id="path3129" class="cls-15" d="M32.16,18.61a14.92,14.92,0,0,1,.36,6.74,53.62,53.62,0,0,0-1,7.68l1.8.43A36.46,36.46,0,0,1,34,25.52a14,14,0,0,0-.35-6.9Z"/><path id="path3117" class="cls-16" d="M26.16,18.61a14.92,14.92,0,0,1,.36,6.74c-.76,3,.55,7.64.55,7.64l1.65-.68a11.39,11.39,0,0,1-.79-6.79,14,14,0,0,0-.35-6.9Z"/><path id="path3113" class="cls-17" d="M24.16,18.61a14.92,14.92,0,0,1,.36,6.74c-.76,3-1.36,7.73-1.36,7.73l1.53.2a75,75,0,0,1,1.24-7.76,14,14,0,0,0-.35-6.9Z"/><path id="path3109" class="cls-18" d="M22.16,18.61a14.92,14.92,0,0,1,.36,6.74,28.75,28.75,0,0,0-.25,7.86l1.44-.55a21.14,21.14,0,0,1,.22-7.14,14,14,0,0,0-.35-6.9Z"/><path id="path2986" class="cls-19" d="M12.31,18.71a14.92,14.92,0,0,1,.36,6.74,28.75,28.75,0,0,0-.25,7.86L14,33.7a25.18,25.18,0,0,1,.08-8.08,14,14,0,0,0-.35-6.9Z"/><path id="path2998" class="cls-20" d="M18.44,19.52a33.69,33.69,0,0,1-.35,6.73c-.54,3.06,2.24,7.25,2.24,7.25l1.41-.64a8.07,8.07,0,0,1-2.16-6.78,28.81,28.81,0,0,0,.27-6.56Z"/><path id="path2990" class="cls-21" d="M14.16,18.61a14.92,14.92,0,0,1,.36,6.74,28.75,28.75,0,0,0-.25,7.86l1.44-.55a21.14,21.14,0,0,1,.22-7.14,14,14,0,0,0-.35-6.9Z"/><path id="path2994" class="cls-22" d="M15.82,19.48a14.87,14.87,0,0,1,.35,6.73,10,10,0,0,1-2.44,4.59L15,31.94a13.71,13.71,0,0,0,2.61-5.55,14.07,14.07,0,0,0-.35-6.91Z"/></g><path id="path375" class="cls-23" d="M4.44,18.11c-.06,0,.83,12.82,1.54,21.81.18,2.31.55,3.24,2,3.24,11.82,0,28.61.09,29.19.09,2.76,0,2.71-1,2.94-3.22.08-.8,1.53-21.83,1.52-21.83C31.69,18.21,16.65,18.11,4.44,18.11Z"/><path id="path1841" class="cls-24" d="M6.16,5.57c-1.06,0-2,0-2.44,1-.09.18-2.66,7.34-2.79,7.62-1.06,2.34-.08,5.28,2,5.26h41c1.74,0,2-3.46,1.21-5,0-.08-3.52-8-3.61-8.12a2.43,2.43,0,0,0-2-.87Z"/><path id="path2956" class="cls-25" d="M3.79,19.9h2.5l.77,20.61L6.3,43.59a3.16,3.16,0,0,1-1-2.07Z"/><path id="path2958" class="cls-26" d="M7,40.61l-.71,2.93A7.18,7.18,0,0,0,7.51,44h30A9.56,9.56,0,0,0,39,43.84L37,40.4Z"/><path id="path2960" class="cls-27" d="M37,40.37l2,3.45A2.59,2.59,0,0,0,40.62,42l1.51-22H38.68Z"/><g id="path3237" class="cls-28"><path class="cls-29" d="M35.9,19H2.9c-.79,0-1.3-.46-1.63-1.4a4.36,4.36,0,0,1,.14-3.12,3.65,3.65,0,0,0,.14-.35c.07-.19.12-.3.17-.43l.21-.53L2.34,12c.16-.45.32-.92.49-1.39s.38-1,.56-1.5L4.17,7H4.5l-.3-.14h0l.2-.44h.09a.78.78,0,0,1,.35-.18A4.49,4.49,0,0,1,6.15,6H39.36l.52.05a2.13,2.13,0,0,1,1.06.55l.07.09c.05.12.09.18.12.26l.15.32c.09.18.19.39.29.62l2.85,6.44.06.13.06.12a.33.33,0,0,1,0,.14,5.21,5.21,0,0,1,.27,2.71,3.09,3.09,0,0,1-.4,1.15l-.11.14V19h-.5v0H35.87Zm7-1h.79a2.38,2.38,0,0,0,.2-.69,4.29,4.29,0,0,0-.17-2.1,1.17,1.17,0,0,1-.09-.24,1.74,1.74,0,0,1-.11-.18L40.67,8.32l-.28-.6-.24-.49A1.74,1.74,0,0,0,39.52,7H6.18a3.74,3.74,0,0,0-1,.1V7.06l-.84,2.3-.56,1.49c-.17.47-.33.94-.48,1.38s-.29.83-.42,1.18-.16.4-.23.57-.08.22-.12.31a4.34,4.34,0,0,1-.2.5,3.42,3.42,0,0,0-.11,2.38c.26.73.53.72.68.73h40Z"/></g><path id="path2962" class="cls-30" d="M7,9l-.62,2h32l-.79-1.92Z"/><path id="rect3006" class="cls-31" d="M8.85.5H36.17a.35.35,0,0,1,.35.35h0V10.5h-28V.85A.35.35,0,0,1,8.85.5Z"/><path id="path3103" class="cls-32" d="M9.5,9.52v-8h26V9.63"/><path id="path3139" class="cls-33" d="M41.6,14.16c0,.55-.91,1-2,1s-2-.44-2-1,.91-1,2-1S41.6,13.61,41.6,14.16Z"/><g id="path3137"><path class="cls-34" d="M41.6,13.5c0,.55-.91,1-2,1s-2-.44-2-1,.91-1,2-1S41.6,13,41.6,13.5Z"/><path class="cls-35" d="M39.57,15.11c-1.54,0-2.66-.68-2.66-1.61s1.12-1.62,2.66-1.62,2.65.68,2.65,1.62S41.11,15.11,39.57,15.11Zm0-2a1.9,1.9,0,0,0-1.43.42,2.84,2.84,0,0,0,1.43.33A2.15,2.15,0,0,0,41,13.49,2.09,2.09,0,0,0,39.57,13.11Z"/></g><rect id="rect3157" class="cls-36" x="8" y="5.69" width="29" height="5.31"/><path id="rect3167" class="cls-37" d="M11.5,3h22a.5.5,0,0,1,.5.5h0a.5.5,0,0,1-.5.5h-22a.5.5,0,0,1-.5-.5h0A.5.5,0,0,1,11.5,3Z"/><path id="rect3169" class="cls-37" d="M11.5,5h14a.5.5,0,0,1,.5.5h0a.5.5,0,0,1-.5.5h-14a.5.5,0,0,1-.5-.5h0A.5.5,0,0,1,11.5,5Z"/><path id="rect3171" class="cls-37" d="M11.5,7h18a.5.5,0,0,1,.5.5h0a.5.5,0,0,1-.5.5h-18a.5.5,0,0,1-.5-.5h0A.5.5,0,0,1,11.5,7Z"/></g></g></g></svg>