<svg xmlns="http://www.w3.org/2000/svg" viewBox="0 0 254.33 237.75"><defs><style>.cls-1{fill:#f1f5f7;stroke:#a3a3a3;stroke-miterlimit:10;stroke-width:3px;}.cls-2{fill:#46b34c;}.cls-3{fill:#3ca241;}.cls-4{fill:#fcfcfc;}</style></defs><title>Asset 5</title><g id="Layer_2" data-name="Layer 2"><g id="Layer_1-2" data-name="Layer 1"><g id="_79-excel" data-name=" 79-excel"><path class="cls-1" d="M245,206H134.3a7.92,7.92,0,0,1-7.9-7.93V39.61a7.9,7.9,0,0,1,7.9-7.92H244.93a7.9,7.9,0,0,1,7.9,7.92h0V198.08a7.92,7.92,0,0,1-7.9,7.93Z"/><path class="cls-2" d="M165.94,79.24H134.3a7.93,7.93,0,0,1,0-15.85h31.61a7.93,7.93,0,0,1,0,15.85Z"/><path class="cls-2" d="M165.94,110.93H134.3a7.92,7.92,0,0,1,0-15.84h31.61a7.92,7.92,0,0,1,0,15.84Z"/><path class="cls-2" d="M165.94,142.61H134.3a7.92,7.92,0,0,1,0-15.84h31.61a7.92,7.92,0,1,1,0,15.84Z"/><path class="cls-2" d="M165.94,174.32H134.3a7.93,7.93,0,0,1,0-15.85h31.61a7.93,7.93,0,0,1,0,15.85Z"/><path class="cls-2" d="M213.35,79.24h-15.8a7.93,7.93,0,0,1,0-15.85h15.8a7.93,7.93,0,0,1,0,15.85Z"/><path class="cls-2" d="M213.35,110.93h-15.8a7.92,7.92,0,0,1,0-15.84h15.8a7.92,7.92,0,0,1,0,15.84Z"/><path class="cls-2" d="M213.35,142.61h-15.8a7.92,7.92,0,0,1,0-15.84h15.8a7.92,7.92,0,1,1,0,15.84Z"/><path class="cls-2" d="M213.35,174.32h-15.8a7.93,7.93,0,0,1,0-15.85h15.8a7.93,7.93,0,0,1,0,15.85Z"/><path class="cls-3" d="M139.38,1.83a7.73,7.73,0,0,0-6.5-1.68L6.45,23.92A7.9,7.9,0,0,0,0,31.7V206a7.93,7.93,0,0,0,6.45,7.78l126.43,23.82a7.74,7.74,0,0,0,6.45-1.68,8,8,0,0,0,2.85-6.1V7.93a7.93,7.93,0,0,0-2.85-6.1Z"/><path class="cls-4" d="M108.67,145.33l-25-28.63L109,84.12a7.91,7.91,0,1,0-12.47-9.75h0L73.07,104.54,53.35,82a7.84,7.84,0,0,0-11.07-.81l-.07.06a7.93,7.93,0,0,0-.75,11.17l21.73,24.91-22,28.4a7.92,7.92,0,1,0,12.19,10.11l.3-.38,20.15-26,23,26.33a7.9,7.9,0,0,0,11.89-10.42h0Z"/></g></g></g></svg>