<svg xmlns="http://www.w3.org/2000/svg" viewBox="0 0 187.4 181.4"><defs><style>.cls-1,.cls-2,.cls-4,.cls-6{fill:none;}.cls-2{stroke:#ffcf47;}.cls-2,.cls-4,.cls-6{stroke-miterlimit:10;}.cls-2,.cls-4{stroke-width:16px;}.cls-3{fill:#ffcf47;}.cls-4{stroke:#48b9e1;}.cls-5{fill:#48b9e1;}.cls-6{stroke:#fc6d4b;stroke-width:14px;}</style></defs><title>Asset 6</title><g id="Layer_2" data-name="Layer 2"><g id="Layer_1-2" data-name="Layer 1"><line class="cls-1" x1="52.28" y1="45.68" x2="135.72" y2="129.12"/><line class="cls-2" x1="52.28" y1="45.68" x2="135.72" y2="129.12"/><polygon class="cls-3" points="75.66 27.83 34.43 69.06 34.43 27.83 75.66 27.83"/><polygon class="cls-3" points="153.57 105.74 112.34 146.97 153.57 146.97 153.57 105.74"/><line class="cls-1" x1="53.28" y1="129.12" x2="136.72" y2="45.68"/><line class="cls-4" x1="53.28" y1="129.12" x2="136.72" y2="45.68"/><polygon class="cls-5" points="35.43 105.74 76.66 146.97 35.43 146.97 35.43 105.74"/><polygon class="cls-5" points="113.34 27.83 154.57 69.06 154.57 27.83 113.34 27.83"/><polyline class="cls-6" points="61 174.4 7 174.4 7 128.4"/><polyline class="cls-6" points="179 127.4 179 174.4 140 174.4"/><polyline class="cls-6" points="139 7 180.4 7 180.4 60"/><polyline class="cls-6" points="8.4 59 8.4 7 59 7"/></g></g></svg>