<svg xmlns="http://www.w3.org/2000/svg" xmlns:xlink="http://www.w3.org/1999/xlink" viewBox="0 0 217.32 220.59"><defs><style>.cls-1{fill:url(#linear-gradient);}.cls-2{fill:#4bbfeb;}.cls-3{fill:#1c9ec6;}.cls-4{fill:url(#linear-gradient-2);}.cls-5{fill:#fcd062;}.cls-6{fill:#f05542;}.cls-7{fill:#25b39e;}.cls-8{fill:#60c5b8;}.cls-9{fill:#34485c;}</style><linearGradient id="linear-gradient" x1="55.57" y1="403.25" x2="109.32" y2="403.25" gradientTransform="matrix(1, 0, 0, -1, 0, 481.08)" gradientUnits="userSpaceOnUse"><stop offset="0" stop-color="#4bbfeb"/><stop offset="1" stop-color="#19a1eb"/></linearGradient><linearGradient id="linear-gradient-2" x1="0.51" y1="308.88" x2="54.25" y2="308.88" gradientTransform="matrix(1, 0, 0, -1, 0, 481.08)" gradientUnits="userSpaceOnUse"><stop offset="0" stop-color="#f8b84e"/><stop offset="1" stop-color="#f8b84e"/></linearGradient></defs><title>Asset 10</title><g id="Layer_2" data-name="Layer 2"><g id="Layer_1-2" data-name="Layer 1"><rect class="cls-1" x="55.57" y="27.38" width="53.75" height="100.9"/><rect class="cls-2" x="109.32" y="27.38" width="54.25" height="100.9"/><polygon class="cls-3" points="55.07 27.38 109.83 52.23 164.08 27.38 110.84 0 55.07 27.38"/><polygon class="cls-4" points="54.25 124.25 0.51 124.25 0.51 193.76 54.25 220.15 54.25 124.25"/><polygon class="cls-5" points="55.16 220.59 108.51 195.1 108.51 124.25 54.25 124.25 54.25 220.15 55.16 220.59"/><polygon class="cls-6" points="0 124.25 54.76 149.1 109.01 124.25 55.77 96.87 0 124.25"/><polygon class="cls-7" points="162.56 124.25 108.81 124.25 108.81 193.76 162.56 220.15 162.56 124.25"/><polygon class="cls-8" points="163.47 220.59 216.81 195.1 216.81 124.25 162.56 124.25 162.56 220.15 163.47 220.59"/><polygon class="cls-9" points="108.31 124.25 163.07 149.1 217.32 124.25 164.08 96.87 108.31 124.25"/></g></g></svg>