<svg xmlns="http://www.w3.org/2000/svg" xmlns:xlink="http://www.w3.org/1999/xlink" viewBox="0 0 235.82 235.82"><defs><style>.cls-1,.cls-2{fill:none;}.cls-2{clip-path:url(#clip-path);}.cls-3{fill:#babdb6;stroke:#555753;opacity:0.5;isolation:isolate;}.cls-4{stroke:#204a87;fill:url(#linear-gradient);}.cls-5{clip-path:url(#clip-path-2);}.cls-6{fill:url(#linear-gradient-2);}.cls-7{fill:#fc6d4b;}</style><clipPath id="clip-path"><polygon class="cls-1" points="3 3 4 3 3 4 3 3"/></clipPath><linearGradient id="linear-gradient" x1="12.62" y1="-136.8" x2="247.44" y2="-136.8" gradientTransform="matrix(1, 0, 0, -1, 0, -6.78)" gradientUnits="userSpaceOnUse"><stop offset="0" stop-color="#598bcb"/><stop offset="0.76" stop-color="#2f5c96"/><stop offset="1" stop-color="#203e65"/></linearGradient><clipPath id="clip-path-2" transform="translate(-12.12 -12.11)"><polygon class="cls-2" points="1 1 0 1 1 0 1 1"/></clipPath><linearGradient id="linear-gradient-2" x1="203.65" y1="72.01" x2="101.43" y2="-30.22" gradientTransform="translate(0 130.78)" gradientUnits="userSpaceOnUse"><stop offset="0" stop-color="#fff"/><stop offset="1" stop-color="#b2b2b2"/></linearGradient></defs><title>Asset 2</title><g id="Layer_2" data-name="Layer 2"><g id="Layer_1-2" data-name="Layer 1"><path class="cls-3" d="M233.59,130a103.62,103.62,0,1,1-74.21-99.34A102.91,102.91,0,0,1,233.59,130Z" transform="translate(-12.12 -12.11)"/><path class="cls-4" d="M130,12.61A117.41,117.41,0,1,0,247.44,130,117.41,117.41,0,0,0,130,12.61Zm0,221A103.6,103.6,0,1,1,233.6,130,103.6,103.6,0,0,1,130,233.61Z" transform="translate(-12.12 -12.11)"/><g class="cls-5"><path class="cls-6" d="M229.33,159.43a104,104,0,0,1-68.6,69.51L97.44,165.61l27.6-1.43L88.11,129.12l19.25-19.3-1.19-14,61.13,1.54Z" transform="translate(-12.12 -12.11)"/></g><path class="cls-7" d="M132.36,82.75a48.69,48.69,0,0,0-38.92,19.39L86.8,98.48l1.29,30.64,26-15.51-6.8-3.76a33.15,33.15,0,1,1-4,37.79c-1.82-2.4-6.52-3.59-10.08-1.49-4.25,2.51-4.25,8.22-2.31,11.28a48.81,48.81,0,1,0,41.41-74.65Z" transform="translate(-12.12 -12.11)"/></g></g></svg>