<svg xmlns="http://www.w3.org/2000/svg" viewBox="0 0 18 18"><defs><style>.cls-1{fill:#2980b9;}.cls-2{fill:#3498db;}.cls-3{fill:#ecf0f1;}.cls-4{fill:#bdc3c7;}.cls-5{fill:#95a5a6;}</style></defs><title>Asset 1</title><g id="Layer_2" data-name="Layer 2"><g id="Layer_1-2" data-name="Layer 1"><path class="cls-1" d="M0,6V16a2,2,0,0,0,2,2H16a2,2,0,0,0,2-2V6Z"/><path class="cls-2" d="M2,0A2,2,0,0,0,0,2V15a2,2,0,0,0,2,2H16a2,2,0,0,0,2-2V3L15,0H2Z"/><path class="cls-1" d="M3,0V4A2,2,0,0,0,5,6h8a2,2,0,0,0,2-2V0Z"/><path class="cls-3" d="M5,10a2,2,0,0,0-2,2v5H15V12a2,2,0,0,0-2-2H5Z"/><rect class="cls-4" x="3" y="17" width="12" height="1"/><path class="cls-3" d="M4,0V3A2,2,0,0,0,6,5h6a2,2,0,0,0,2-2V0Z"/><path class="cls-5" d="M5,1V3A1,1,0,0,0,6,4H8A1,1,0,0,0,9,3V1H5Z"/><rect class="cls-4" x="5" y="12" width="8" height="1"/><rect class="cls-4" x="5" y="14" width="8" height="1"/><rect class="cls-4" x="5" width="4" height="1"/></g></g></svg>