<svg xmlns="http://www.w3.org/2000/svg" viewBox="0 0 236.49 231.81"><defs><style>.cls-1{fill:#ffcf47;}.cls-2{fill:#fc6d4b;}.cls-3{fill:#fff;}.cls-4{fill:#1ab597;}.cls-5{fill:#2f7abe;}.cls-6{fill:#fafbfc;}.cls-7{fill:#f9f9f9;}.cls-8{fill:#fdfdfd;}</style></defs><title>Asset 7</title><g id="Layer_2" data-name="Layer 2"><g id="Layer_1-2" data-name="Layer 1"><rect class="cls-1" x="14.21" y="13.4" width="152.11" height="214.48" rx="20"/><rect class="cls-2" x="73.54" y="106.19" width="150.59" height="108" rx="20"/><path class="cls-3" d="M59.14,36.39H71.61c-4.15-.07-8.31,0-12.47,0h-12C51.16,36.35,55.15,36.39,59.14,36.39Z"/><path d="M146.65,231.76H98.17c16.16.05,32.32,0,48.48,0,17,0,34,.16,51,0C180.64,231.92,163.64,231.76,146.65,231.76Z"/><path class="cls-4" d="M236.25,134.47c-.33-21.67-16.9-38.11-38.62-38.25q-50.73-.33-101.46,0c-22.14.16-38.63,17.09-38.75,39.24-.1,18.49-.05,37,0,55.48,0,24.29,16.47,40.74,40.77,40.8,16.16,0,32.32,0,48.48,0,17,0,34,.16,51-.05,21.69-.27,38.3-16.65,38.62-38.27Q236.71,164,236.25,134.47Zm-20.54,56.84c0,12.55-7.33,19.71-20,19.74H98.32c-12.89,0-20.22-7.28-20.23-20V136.11c0-11.49,7.55-19.2,19-19.22q49.44-.09,98.89,0c12.32,0,19.64,7.27,19.7,19.49Q215.79,163.83,215.71,191.31Z"/><path class="cls-5" d="M36.31,210.15c-11.26-4.1-15.6-12.31-15.56-24,.19-47,.07-94,.09-141,0-15.78,8.63-24.33,24.45-24.34h84c16.43,0,25,8.49,25,24.88V74.18H175V45.37c0-27-18.07-45.22-45-45.25C101.68.12,73.35.48,45,0,18.58-.42-.36,20.33,0,44.86c.67,47.31.18,94.64.23,142A52,52,0,0,0,1,197.79c4.69,22.06,23.24,35.2,47.36,33.8-3.27-6.59-6.37-13-9.61-19.26A4.87,4.87,0,0,0,36.31,210.15Z"/><path class="cls-6" d="M71.61,36.41c-4.15-.07-8.31,0-12.47,0h-12c-9.92.12-17.2,7.35-17.4,17.31-.09,4.32,0,8.64,0,13,0,11,7.27,18.55,18.28,18.76q11.71.22,23.44,0a17.71,17.71,0,0,0,17.38-17.6v-14A17.19,17.19,0,0,0,72,36.41ZM80.71,67c-.17,6.21-3.69,10.11-9.82,10.32-7.64.26-15.3.27-22.94,0-6.4-.23-9.94-4.18-10.1-10.64-.1-4.15-.16-8.32,0-12.47.26-5.9,4-9.52,9.85-9.68,3.82-.11,7.65,0,11.47,0s7.65-.09,11.47,0c6.26.21,9.85,3.79,10,10Q80.88,60.72,80.71,67Z"/><path class="cls-7" d="M205.89,156.08a16.78,16.78,0,0,0-16.48-16.6c-8.48-.17-17-.14-25.44,0-8,.11-14.87,5.22-16.11,13a75.48,75.48,0,0,0-.76,19.8c1.12,10.46,8.23,16.14,18.64,16.26h23a17.21,17.21,0,0,0,17.26-17Q206.06,163.82,205.89,156.08Zm-8.18,14.69c-.12,5.58-3.65,9.31-9.29,9.6-4,.2-8,0-12,0-3.82,0-7.64.12-11.46,0-5.18-.19-8.73-2.78-9.32-7.89a76.3,76.3,0,0,1-.17-16.82c.55-5.35,4.22-8.06,9.64-8.15q11-.18,21.93,0c7.2.12,10.6,3.67,10.63,10.78C197.76,162.47,197.83,166.62,197.71,170.77Z"/><path class="cls-3" d="M103.85,41.41h35.79a4.16,4.16,0,0,1,4.16,4.16h0a4.17,4.17,0,0,1-4.16,4.16H103.85a4.16,4.16,0,0,1-4.16-4.16h0A4.16,4.16,0,0,1,103.85,41.41Z"/><path class="cls-3" d="M103.85,60.55h35.79a4.16,4.16,0,0,1,4.16,4.16h0a4.17,4.17,0,0,1-4.16,4.16H103.85a4.16,4.16,0,0,1-4.16-4.16h0A4.16,4.16,0,0,1,103.85,60.55Z"/><path class="cls-3" d="M93.85,149.18h35.79a4.16,4.16,0,0,1,4.16,4.16h0a4.17,4.17,0,0,1-4.16,4.16H93.85a4.16,4.16,0,0,1-4.16-4.16h0A4.16,4.16,0,0,1,93.85,149.18Z"/><path class="cls-8" d="M93.85,168.32h35.79a4.16,4.16,0,0,1,4.16,4.16h0a4.17,4.17,0,0,1-4.16,4.16H93.85a4.16,4.16,0,0,1-4.16-4.16h0A4.16,4.16,0,0,1,93.85,168.32Z"/></g></g></svg>